<svg width="20.000000" height="20.000000" viewBox="0 0 20 20" fill="none" xmlns="http://www.w3.org/2000/svg" xmlns:xlink="http://www.w3.org/1999/xlink">
	<desc>
			Created with Pixso.
	</desc>
	<defs>
		<clipPath id="clip2322_10290">
			<rect id="Frame" width="20.000000" height="20.000000" fill="white" fill-opacity="0"/>
		</clipPath>
	</defs>
	<rect id="Frame" width="20.000000" height="20.000000" fill="#FFFFFF" fill-opacity="0"/>
	<g clip-path="url(#clip2322_10290)">
		<path id="Vector" d="M10 1.66C14.6 1.66 18.33 4.98 18.33 9.07C18.33 10.3 17.84 11.47 16.97 12.34C16.1 13.21 14.93 13.7 13.7 13.7L12.06 13.7C11.29 13.7 10.67 14.32 10.67 15.09C10.67 15.44 10.81 15.76 11.02 16C11.25 16.25 11.38 16.58 11.38 16.94C11.38 17.71 10.75 18.33 10 18.33C5.39 18.33 1.66 14.6 1.66 10C1.66 5.39 5.39 1.66 10 1.66ZM9 15.09C9 14.69 9.08 14.29 9.24 13.92C9.39 13.55 9.62 13.21 9.9 12.93C10.18 12.64 10.52 12.42 10.89 12.26C11.26 12.11 11.66 12.03 12.06 12.03L13.7 12.03C14.48 12.03 15.24 11.72 15.79 11.16C16.35 10.61 16.66 9.86 16.66 9.07C16.66 5.94 13.72 3.33 10 3.33C8.28 3.33 6.62 3.99 5.38 5.18C4.14 6.37 3.4 8 3.33 9.71C3.26 11.43 3.85 13.11 4.99 14.4C6.12 15.69 7.72 16.5 9.43 16.64C9.15 16.17 9.01 15.63 9 15.09L9 15.09ZM6.25 10C5.91 10 5.6 9.86 5.36 9.63C5.13 9.39 5 9.08 5 8.75C5 8.41 5.13 8.1 5.36 7.86C5.6 7.63 5.91 7.5 6.25 7.5C6.58 7.5 6.89 7.63 7.13 7.86C7.36 8.1 7.5 8.41 7.5 8.75C7.5 9.08 7.36 9.39 7.13 9.63C6.89 9.86 6.58 10 6.25 10ZM13.75 10C13.41 10 13.1 9.86 12.86 9.63C12.63 9.39 12.5 9.08 12.5 8.75C12.5 8.41 12.63 8.1 12.86 7.86C13.1 7.63 13.41 7.5 13.75 7.5C14.08 7.5 14.39 7.63 14.63 7.86C14.86 8.1 15 8.41 15 8.75C15 9.08 14.86 9.39 14.63 9.63C14.39 9.86 14.08 10 13.75 10ZM10 7.5C9.66 7.5 9.35 7.36 9.11 7.13C8.88 6.89 8.75 6.58 8.75 6.25C8.75 5.91 8.88 5.6 9.11 5.36C9.35 5.13 9.66 5 10 5C10.33 5 10.64 5.13 10.88 5.36C11.11 5.6 11.25 5.91 11.25 6.25C11.25 6.58 11.11 6.89 10.88 7.13C10.64 7.36 10.33 7.5 10 7.5Z" fill="#91969E" fill-opacity="1.000000" fill-rule="nonzero"/>
	</g>
</svg>
