<svg width="26.000000" height="23.000000" viewBox="0 0 26 23" fill="none" xmlns="http://www.w3.org/2000/svg" xmlns:xlink="http://www.w3.org/1999/xlink">
	<desc>
			Created with Pixso.
	</desc>
	<defs/>
	<mask id="mask_103_9535" fill="white">
		<path id="Union" d="M11.8721 20.6875L11.8721 21.1875L12.3721 21.1875L12.3721 20.6875L11.8721 20.6875ZM11.8721 4.64941L12.3721 4.64941L12.3721 4.021L11.7595 4.16211L11.8721 4.64941ZM8.49707 20.6875L8.49707 21.1875L8.49707 21.1875L8.49707 20.6875ZM16.3721 20.6875L16.3721 21.1875L16.3721 21.1875L16.3721 20.6875ZM12.9971 20.6875L12.4971 20.6875L12.4971 21.1875L12.9971 21.1875L12.9971 20.6875ZM12.9971 4.41455L13.0305 3.91553L12.4971 3.87988L12.4971 4.41455L12.9971 4.41455ZM13.1211 4.43701L12.9773 4.91602L12.9773 4.91602L13.1211 4.43701ZM18.0923 5.92822L18.5469 6.13672L18.7861 5.61475L18.2361 5.44971L18.0923 5.92822ZM14.6348 13.4785L14.1802 13.2705L14.1802 13.2705L14.6348 13.4785ZM15.4131 15.415L15.2451 15.8862L15.2451 15.8862L15.4131 15.415ZM23.1187 15.4121L23.3164 15.8711L23.3164 15.8711L23.1187 15.4121ZM23.8472 13.5942L24.3145 13.416L24.3145 13.416L23.8472 13.5942ZM20.7939 5.59375L20.6855 5.10547L20.1204 5.23096L20.3269 5.77197L20.7939 5.59375ZM23.2576 5.04639L23.1492 4.55811L23.1492 4.55811L23.2576 5.04639ZM23.6846 4.375L23.1965 4.4834L23.1965 4.4834L23.6846 4.375ZM23.0134 3.94824L22.905 3.45996L22.905 3.45996L23.0134 3.94824ZM18.7864 4.88721L18.678 4.39941L18.678 4.39941L18.7864 4.88721ZM18.5027 4.87695L18.6465 4.39795L18.6465 4.39795L18.5027 4.87695ZM13.4443 3.35938L13.3005 3.83838L13.3005 3.83838L13.4443 3.35938ZM12.9971 3.28857L12.4971 3.28857L12.4971 3.77783L12.9858 3.78857L12.9971 3.28857ZM11.8721 3.49512L11.9846 3.98193L12.3721 3.89258L12.3721 3.49512L11.8721 3.49512ZM5.95215 4.86084L5.83984 4.37402L5.83984 4.37402L5.95215 4.86084ZM3.06421 3.56104L3.28784 3.11377L3.28784 3.11377L3.06421 3.56104ZM2.56104 4.56738L2.3374 5.01465L2.3374 5.01465L2.56104 4.56738ZM4.72095 5.64746L5.17554 5.85547L5.37671 5.41602L4.94458 5.2002L4.72095 5.64746ZM1.13477 13.4785L1.58936 13.687L1.58936 13.687L1.13477 13.4785ZM1.91284 15.415L1.74487 15.8862L1.74487 15.8862L1.91284 15.415ZM9.61841 15.4121L9.81641 15.8711L9.81641 15.8711L9.61841 15.4121ZM10.3472 13.5942L10.8142 13.416L10.8142 13.416L10.3472 13.5942ZM7.33325 5.69678L7.22095 5.20947L6.66138 5.33887L6.86621 5.875L7.33325 5.69678ZM6.34961 5.92383L6.81665 5.74561L6.66138 5.33887L6.23706 5.43652L6.34961 5.92383ZM9.41284 13.9512L8.9458 14.1294L8.9458 14.1294L9.41284 13.9512ZM9.2229 14.4937L9.42065 14.9531L9.42065 14.9531L9.2229 14.4937ZM2.24878 14.4731L2.41675 14.0024L2.41675 14.0024L2.24878 14.4731ZM2.04395 13.895L1.58936 13.687L1.58936 13.687L2.04395 13.895ZM5.66284 5.99268L5.71094 5.49512L5.35645 5.46045L5.20825 5.78418L5.66284 5.99268ZM6.20532 5.95703L6.31763 6.44434L6.31763 6.44434L6.20532 5.95703ZM19.8074 5.81299L20.2744 5.63477L20.1204 5.23096L19.699 5.32471L19.8074 5.81299ZM19.1814 5.95215L19.073 5.46387L18.8303 5.51807L18.7268 5.74365L19.1814 5.95215ZM15.5439 13.895L15.9985 14.103L15.9985 14.103L15.5439 13.895ZM15.7488 14.4731L15.5808 14.9443L15.5808 14.9443L15.7488 14.4731ZM22.7229 14.4937L22.9207 14.9531L22.9207 14.9531L22.7229 14.4937ZM22.9131 13.9512L23.3801 13.7725L23.3801 13.7725L22.9131 13.9512ZM12.3721 20.6875L12.3721 4.64941L11.3721 4.64941L11.3721 20.6875L12.3721 20.6875ZM8.49707 21.1875L11.8721 21.1875L11.8721 20.1875L8.49707 20.1875L8.49707 21.1875ZM8.43457 21.25C8.43457 21.2158 8.46265 21.1875 8.49707 21.1875L8.49707 20.1875C7.91016 20.1875 7.43457 20.6631 7.43457 21.25L8.43457 21.25ZM8.49707 21.3125C8.46265 21.3125 8.43457 21.2847 8.43457 21.25L7.43457 21.25C7.43457 21.8369 7.91016 22.3125 8.49707 22.3125L8.49707 21.3125ZM16.3721 21.3125L8.49707 21.3125L8.49707 22.3125L16.3721 22.3125L16.3721 21.3125ZM16.4346 21.25C16.4346 21.2847 16.4065 21.3125 16.3721 21.3125L16.3721 22.3125C16.959 22.3125 17.4346 21.8369 17.4346 21.25L16.4346 21.25ZM16.3721 21.1875C16.4065 21.1875 16.4346 21.2158 16.4346 21.25L17.4346 21.25C17.4346 20.6631 16.959 20.1875 16.3721 20.1875L16.3721 21.1875ZM12.9971 21.1875L16.3721 21.1875L16.3721 20.1875L12.9971 20.1875L12.9971 21.1875ZM12.4971 4.41455L12.4971 20.6875L13.4971 20.6875L13.4971 4.41455L12.4971 4.41455ZM13.2646 3.95801C13.1882 3.93506 13.1096 3.9209 13.0305 3.91553L12.9636 4.91357C12.9683 4.91357 12.9729 4.91455 12.9773 4.91602L13.2646 3.95801ZM18.2361 5.44971L13.2646 3.95801L12.9773 4.91602L17.9487 6.40723L18.2361 5.44971ZM17.6377 5.72021L14.1802 13.2705L15.0894 13.687L18.5469 6.13672L17.6377 5.72021ZM14.1802 13.2705C13.7432 14.2246 14.1116 15.4819 15.2451 15.8862L15.5808 14.9443C15.0752 14.7642 14.8621 14.1831 15.0894 13.687L14.1802 13.2705ZM15.2451 15.8862C17.1248 16.5566 20.3479 17.1504 23.3164 15.8711L22.9207 14.9531C20.2822 16.0898 17.3467 15.5737 15.5808 14.9443L15.2451 15.8862ZM23.3164 15.8711C24.3293 15.4351 24.6528 14.3032 24.3145 13.416L23.3801 13.7725C23.5569 14.2358 23.3694 14.7598 22.9207 14.9531L23.3164 15.8711ZM24.3145 13.416L21.2612 5.41553L20.3269 5.77197L23.3801 13.7725L24.3145 13.416ZM23.1492 4.55811L20.6855 5.10547L20.9023 6.08154L23.366 5.53418L23.1492 4.55811ZM23.1965 4.4834C23.2041 4.51709 23.1829 4.55078 23.1492 4.55811L23.366 5.53418C23.9387 5.40723 24.3 4.83936 24.1726 4.2666L23.1965 4.4834ZM23.1218 4.43604C23.1558 4.42871 23.189 4.44971 23.1965 4.4834L24.1726 4.2666C24.0454 3.69385 23.4778 3.33252 22.905 3.45996L23.1218 4.43604ZM18.8948 5.37549L23.1218 4.43604L22.905 3.45996L18.678 4.39941L18.8948 5.37549ZM18.3591 5.35596C18.533 5.4082 18.7175 5.41504 18.8948 5.37549L18.678 4.39941C18.6675 4.40137 18.6567 4.40137 18.6465 4.39795L18.3591 5.35596ZM13.3005 3.83838L18.3591 5.35596L18.6465 4.39795L13.5879 2.88037L13.3005 3.83838ZM12.9858 3.78857C13.092 3.79102 13.198 3.80762 13.3005 3.83838L13.5879 2.88037C13.3989 2.82373 13.2039 2.79346 13.0083 2.78906L12.9858 3.78857ZM12.4971 1.5625L12.4971 3.28857L13.4971 3.28857L13.4971 1.5625L12.4971 1.5625ZM12.4346 1.5C12.469 1.5 12.4971 1.52783 12.4971 1.5625L13.4971 1.5625C13.4971 0.975586 13.0215 0.5 12.4346 0.5L12.4346 1.5ZM12.3721 1.5625C12.3721 1.52783 12.4001 1.5 12.4346 1.5L12.4346 0.5C11.8477 0.5 11.3721 0.975586 11.3721 1.5625L12.3721 1.5625ZM12.3721 3.49512L12.3721 1.5625L11.3721 1.5625L11.3721 3.49512L12.3721 3.49512ZM6.0647 5.34814L11.9846 3.98193L11.7595 3.00781L5.83984 4.37402L6.0647 5.34814ZM5.35059 5.26318C5.57153 5.37354 5.82397 5.40381 6.0647 5.34814L5.83984 4.37402C5.82568 4.37695 5.81079 4.37549 5.79785 4.36865L5.35059 5.26318ZM2.84058 4.0083L5.35059 5.26318L5.79785 4.36865L3.28784 3.11377L2.84058 4.0083ZM2.75659 4.03613C2.77222 4.00537 2.80957 3.99268 2.84058 4.0083L3.28784 3.11377C2.76294 2.85156 2.12476 3.06396 1.8623 3.58887L2.75659 4.03613ZM2.78467 4.12012C2.75366 4.10449 2.74121 4.06689 2.75659 4.03613L1.8623 3.58887C1.59985 4.11377 1.8125 4.75195 2.3374 5.01465L2.78467 4.12012ZM4.94458 5.2002L2.78467 4.12012L2.3374 5.01465L4.49731 6.09424L4.94458 5.2002ZM4.26636 5.43896L0.680176 13.2705L1.58936 13.687L5.17554 5.85547L4.26636 5.43896ZM0.680176 13.2705C0.243164 14.2246 0.611328 15.4819 1.74487 15.8862L2.08081 14.9443C1.57495 14.7642 1.36206 14.1831 1.58936 13.687L0.680176 13.2705ZM1.74487 15.8862C3.62451 16.5566 6.8479 17.1504 9.81641 15.8711L9.42065 14.9531C6.78223 16.0898 3.84668 15.5737 2.08081 14.9443L1.74487 15.8862ZM9.81641 15.8711C10.8291 15.4351 11.1528 14.3032 10.8142 13.416L9.88013 13.7725C10.0566 14.2358 9.86914 14.7598 9.42065 14.9531L9.81641 15.8711ZM10.8142 13.416L7.80054 5.51855L6.86621 5.875L9.88013 13.7725L10.8142 13.416ZM11.7595 4.16211L7.22095 5.20947L7.4458 6.18408L11.9846 5.13672L11.7595 4.16211ZM5.88232 6.10205L8.9458 14.1294L9.88013 13.7725L6.81665 5.74561L5.88232 6.10205ZM8.9458 14.1294C8.95215 14.146 8.92969 14.0757 9.0249 14.0347L9.42065 14.9531C9.86133 14.7632 10.0601 14.2441 9.88013 13.7725L8.9458 14.1294ZM9.0249 14.0347C6.71631 15.0293 4.06812 14.5913 2.41675 14.0024L2.08081 14.9443C3.84668 15.5737 6.78223 16.0898 9.42065 14.9531L9.0249 14.0347ZM2.41675 14.0024C2.45947 14.0176 2.48242 14.0469 2.49146 14.0698C2.50269 14.0981 2.4939 14.1133 2.49854 14.103L1.58936 13.687C1.35742 14.1934 1.58496 14.7676 2.08081 14.9443L2.41675 14.0024ZM2.49854 14.103L6.11743 6.20068L5.20825 5.78418L1.58936 13.687L2.49854 14.103ZM6.09277 5.47021C5.9668 5.49902 5.83789 5.50732 5.71094 5.49512L5.6145 6.49023C5.84814 6.5127 6.08545 6.49805 6.31763 6.44434L6.09277 5.47021ZM6.23706 5.43652L6.09277 5.47021L6.31763 6.44434L6.46191 6.41113L6.23706 5.43652ZM19.699 5.32471L19.073 5.46387L19.2898 6.43994L19.9158 6.30127L19.699 5.32471ZM15.9985 14.103L19.636 6.16016L18.7268 5.74365L15.0894 13.687L15.9985 14.103ZM15.9167 14.0024C15.9597 14.0176 15.9824 14.0469 15.9915 14.0698C16.0027 14.0981 15.9939 14.1133 15.9985 14.103L15.0894 13.687C14.8574 14.1934 15.085 14.7676 15.5808 14.9443L15.9167 14.0024ZM22.5249 14.0347C20.2163 15.0293 17.5681 14.5913 15.9167 14.0024L15.5808 14.9443C17.3467 15.5737 20.2822 16.0898 22.9207 14.9531L22.5249 14.0347ZM22.4458 14.1294C22.4521 14.146 22.4299 14.0757 22.5249 14.0347L22.9207 14.9531C23.3616 14.7632 23.5601 14.2441 23.3801 13.7725L22.4458 14.1294ZM19.3401 5.99121L22.4458 14.1294L23.3801 13.7725L20.2744 5.63477L19.3401 5.99121Z" fill="" fill-opacity="1.000000" fill-rule="nonzero"/>
	</mask>
	<path id="Union" d="M11.8721 20.6875L11.8721 21.1875L12.3721 21.1875L12.3721 20.6875L11.8721 20.6875ZM11.8721 4.64941L12.3721 4.64941L12.3721 4.021L11.7595 4.16211L11.8721 4.64941ZM8.49707 20.6875L8.49707 21.1875L8.49707 21.1875L8.49707 20.6875ZM16.3721 20.6875L16.3721 21.1875L16.3721 21.1875L16.3721 20.6875ZM12.9971 20.6875L12.4971 20.6875L12.4971 21.1875L12.9971 21.1875L12.9971 20.6875ZM12.9971 4.41455L13.0305 3.91553L12.4971 3.87988L12.4971 4.41455L12.9971 4.41455ZM13.1211 4.43701L12.9773 4.91602L12.9773 4.91602L13.1211 4.43701ZM18.0923 5.92822L18.5469 6.13672L18.7861 5.61475L18.2361 5.44971L18.0923 5.92822ZM14.6348 13.4785L14.1802 13.2705L14.1802 13.2705L14.6348 13.4785ZM15.4131 15.415L15.2451 15.8862L15.2451 15.8862L15.4131 15.415ZM23.1187 15.4121L23.3164 15.8711L23.3164 15.8711L23.1187 15.4121ZM23.8472 13.5942L24.3145 13.416L24.3145 13.416L23.8472 13.5942ZM20.7939 5.59375L20.6855 5.10547L20.1204 5.23096L20.3269 5.77197L20.7939 5.59375ZM23.2576 5.04639L23.1492 4.55811L23.1492 4.55811L23.2576 5.04639ZM23.6846 4.375L23.1965 4.4834L23.1965 4.4834L23.6846 4.375ZM23.0134 3.94824L22.905 3.45996L22.905 3.45996L23.0134 3.94824ZM18.7864 4.88721L18.678 4.39941L18.678 4.39941L18.7864 4.88721ZM18.5027 4.87695L18.6465 4.39795L18.6465 4.39795L18.5027 4.87695ZM13.4443 3.35938L13.3005 3.83838L13.3005 3.83838L13.4443 3.35938ZM12.9971 3.28857L12.4971 3.28857L12.4971 3.77783L12.9858 3.78857L12.9971 3.28857ZM11.8721 3.49512L11.9846 3.98193L12.3721 3.89258L12.3721 3.49512L11.8721 3.49512ZM5.95215 4.86084L5.83984 4.37402L5.83984 4.37402L5.95215 4.86084ZM3.06421 3.56104L3.28784 3.11377L3.28784 3.11377L3.06421 3.56104ZM2.56104 4.56738L2.3374 5.01465L2.3374 5.01465L2.56104 4.56738ZM4.72095 5.64746L5.17554 5.85547L5.37671 5.41602L4.94458 5.2002L4.72095 5.64746ZM1.13477 13.4785L1.58936 13.687L1.58936 13.687L1.13477 13.4785ZM1.91284 15.415L1.74487 15.8862L1.74487 15.8862L1.91284 15.415ZM9.61841 15.4121L9.81641 15.8711L9.81641 15.8711L9.61841 15.4121ZM10.3472 13.5942L10.8142 13.416L10.8142 13.416L10.3472 13.5942ZM7.33325 5.69678L7.22095 5.20947L6.66138 5.33887L6.86621 5.875L7.33325 5.69678ZM6.34961 5.92383L6.81665 5.74561L6.66138 5.33887L6.23706 5.43652L6.34961 5.92383ZM9.41284 13.9512L8.9458 14.1294L8.9458 14.1294L9.41284 13.9512ZM9.2229 14.4937L9.42065 14.9531L9.42065 14.9531L9.2229 14.4937ZM2.24878 14.4731L2.41675 14.0024L2.41675 14.0024L2.24878 14.4731ZM2.04395 13.895L1.58936 13.687L1.58936 13.687L2.04395 13.895ZM5.66284 5.99268L5.71094 5.49512L5.35645 5.46045L5.20825 5.78418L5.66284 5.99268ZM6.20532 5.95703L6.31763 6.44434L6.31763 6.44434L6.20532 5.95703ZM19.8074 5.81299L20.2744 5.63477L20.1204 5.23096L19.699 5.32471L19.8074 5.81299ZM19.1814 5.95215L19.073 5.46387L18.8303 5.51807L18.7268 5.74365L19.1814 5.95215ZM15.5439 13.895L15.9985 14.103L15.9985 14.103L15.5439 13.895ZM15.7488 14.4731L15.5808 14.9443L15.5808 14.9443L15.7488 14.4731ZM22.7229 14.4937L22.9207 14.9531L22.9207 14.9531L22.7229 14.4937ZM22.9131 13.9512L23.3801 13.7725L23.3801 13.7725L22.9131 13.9512ZM12.3721 20.6875L12.3721 4.64941L11.3721 4.64941L11.3721 20.6875L12.3721 20.6875ZM8.49707 21.1875L11.8721 21.1875L11.8721 20.1875L8.49707 20.1875L8.49707 21.1875ZM8.43457 21.25C8.43457 21.2158 8.46265 21.1875 8.49707 21.1875L8.49707 20.1875C7.91016 20.1875 7.43457 20.6631 7.43457 21.25L8.43457 21.25ZM8.49707 21.3125C8.46265 21.3125 8.43457 21.2847 8.43457 21.25L7.43457 21.25C7.43457 21.8369 7.91016 22.3125 8.49707 22.3125L8.49707 21.3125ZM16.3721 21.3125L8.49707 21.3125L8.49707 22.3125L16.3721 22.3125L16.3721 21.3125ZM16.4346 21.25C16.4346 21.2847 16.4065 21.3125 16.3721 21.3125L16.3721 22.3125C16.959 22.3125 17.4346 21.8369 17.4346 21.25L16.4346 21.25ZM16.3721 21.1875C16.4065 21.1875 16.4346 21.2158 16.4346 21.25L17.4346 21.25C17.4346 20.6631 16.959 20.1875 16.3721 20.1875L16.3721 21.1875ZM12.9971 21.1875L16.3721 21.1875L16.3721 20.1875L12.9971 20.1875L12.9971 21.1875ZM12.4971 4.41455L12.4971 20.6875L13.4971 20.6875L13.4971 4.41455L12.4971 4.41455ZM13.2646 3.95801C13.1882 3.93506 13.1096 3.9209 13.0305 3.91553L12.9636 4.91357C12.9683 4.91357 12.9729 4.91455 12.9773 4.91602L13.2646 3.95801ZM18.2361 5.44971L13.2646 3.95801L12.9773 4.91602L17.9487 6.40723L18.2361 5.44971ZM17.6377 5.72021L14.1802 13.2705L15.0894 13.687L18.5469 6.13672L17.6377 5.72021ZM14.1802 13.2705C13.7432 14.2246 14.1116 15.4819 15.2451 15.8862L15.5808 14.9443C15.0752 14.7642 14.8621 14.1831 15.0894 13.687L14.1802 13.2705ZM15.2451 15.8862C17.1248 16.5566 20.3479 17.1504 23.3164 15.8711L22.9207 14.9531C20.2822 16.0898 17.3467 15.5737 15.5808 14.9443L15.2451 15.8862ZM23.3164 15.8711C24.3293 15.4351 24.6528 14.3032 24.3145 13.416L23.3801 13.7725C23.5569 14.2358 23.3694 14.7598 22.9207 14.9531L23.3164 15.8711ZM24.3145 13.416L21.2612 5.41553L20.3269 5.77197L23.3801 13.7725L24.3145 13.416ZM23.1492 4.55811L20.6855 5.10547L20.9023 6.08154L23.366 5.53418L23.1492 4.55811ZM23.1965 4.4834C23.2041 4.51709 23.1829 4.55078 23.1492 4.55811L23.366 5.53418C23.9387 5.40723 24.3 4.83936 24.1726 4.2666L23.1965 4.4834ZM23.1218 4.43604C23.1558 4.42871 23.189 4.44971 23.1965 4.4834L24.1726 4.2666C24.0454 3.69385 23.4778 3.33252 22.905 3.45996L23.1218 4.43604ZM18.8948 5.37549L23.1218 4.43604L22.905 3.45996L18.678 4.39941L18.8948 5.37549ZM18.3591 5.35596C18.533 5.4082 18.7175 5.41504 18.8948 5.37549L18.678 4.39941C18.6675 4.40137 18.6567 4.40137 18.6465 4.39795L18.3591 5.35596ZM13.3005 3.83838L18.3591 5.35596L18.6465 4.39795L13.5879 2.88037L13.3005 3.83838ZM12.9858 3.78857C13.092 3.79102 13.198 3.80762 13.3005 3.83838L13.5879 2.88037C13.3989 2.82373 13.2039 2.79346 13.0083 2.78906L12.9858 3.78857ZM12.4971 1.5625L12.4971 3.28857L13.4971 3.28857L13.4971 1.5625L12.4971 1.5625ZM12.4346 1.5C12.469 1.5 12.4971 1.52783 12.4971 1.5625L13.4971 1.5625C13.4971 0.975586 13.0215 0.5 12.4346 0.5L12.4346 1.5ZM12.3721 1.5625C12.3721 1.52783 12.4001 1.5 12.4346 1.5L12.4346 0.5C11.8477 0.5 11.3721 0.975586 11.3721 1.5625L12.3721 1.5625ZM12.3721 3.49512L12.3721 1.5625L11.3721 1.5625L11.3721 3.49512L12.3721 3.49512ZM6.0647 5.34814L11.9846 3.98193L11.7595 3.00781L5.83984 4.37402L6.0647 5.34814ZM5.35059 5.26318C5.57153 5.37354 5.82397 5.40381 6.0647 5.34814L5.83984 4.37402C5.82568 4.37695 5.81079 4.37549 5.79785 4.36865L5.35059 5.26318ZM2.84058 4.0083L5.35059 5.26318L5.79785 4.36865L3.28784 3.11377L2.84058 4.0083ZM2.75659 4.03613C2.77222 4.00537 2.80957 3.99268 2.84058 4.0083L3.28784 3.11377C2.76294 2.85156 2.12476 3.06396 1.8623 3.58887L2.75659 4.03613ZM2.78467 4.12012C2.75366 4.10449 2.74121 4.06689 2.75659 4.03613L1.8623 3.58887C1.59985 4.11377 1.8125 4.75195 2.3374 5.01465L2.78467 4.12012ZM4.94458 5.2002L2.78467 4.12012L2.3374 5.01465L4.49731 6.09424L4.94458 5.2002ZM4.26636 5.43896L0.680176 13.2705L1.58936 13.687L5.17554 5.85547L4.26636 5.43896ZM0.680176 13.2705C0.243164 14.2246 0.611328 15.4819 1.74487 15.8862L2.08081 14.9443C1.57495 14.7642 1.36206 14.1831 1.58936 13.687L0.680176 13.2705ZM1.74487 15.8862C3.62451 16.5566 6.8479 17.1504 9.81641 15.8711L9.42065 14.9531C6.78223 16.0898 3.84668 15.5737 2.08081 14.9443L1.74487 15.8862ZM9.81641 15.8711C10.8291 15.4351 11.1528 14.3032 10.8142 13.416L9.88013 13.7725C10.0566 14.2358 9.86914 14.7598 9.42065 14.9531L9.81641 15.8711ZM10.8142 13.416L7.80054 5.51855L6.86621 5.875L9.88013 13.7725L10.8142 13.416ZM11.7595 4.16211L7.22095 5.20947L7.4458 6.18408L11.9846 5.13672L11.7595 4.16211ZM5.88232 6.10205L8.9458 14.1294L9.88013 13.7725L6.81665 5.74561L5.88232 6.10205ZM8.9458 14.1294C8.95215 14.146 8.92969 14.0757 9.0249 14.0347L9.42065 14.9531C9.86133 14.7632 10.0601 14.2441 9.88013 13.7725L8.9458 14.1294ZM9.0249 14.0347C6.71631 15.0293 4.06812 14.5913 2.41675 14.0024L2.08081 14.9443C3.84668 15.5737 6.78223 16.0898 9.42065 14.9531L9.0249 14.0347ZM2.41675 14.0024C2.45947 14.0176 2.48242 14.0469 2.49146 14.0698C2.50269 14.0981 2.4939 14.1133 2.49854 14.103L1.58936 13.687C1.35742 14.1934 1.58496 14.7676 2.08081 14.9443L2.41675 14.0024ZM2.49854 14.103L6.11743 6.20068L5.20825 5.78418L1.58936 13.687L2.49854 14.103ZM6.09277 5.47021C5.9668 5.49902 5.83789 5.50732 5.71094 5.49512L5.6145 6.49023C5.84814 6.5127 6.08545 6.49805 6.31763 6.44434L6.09277 5.47021ZM6.23706 5.43652L6.09277 5.47021L6.31763 6.44434L6.46191 6.41113L6.23706 5.43652ZM19.699 5.32471L19.073 5.46387L19.2898 6.43994L19.9158 6.30127L19.699 5.32471ZM15.9985 14.103L19.636 6.16016L18.7268 5.74365L15.0894 13.687L15.9985 14.103ZM15.9167 14.0024C15.9597 14.0176 15.9824 14.0469 15.9915 14.0698C16.0027 14.0981 15.9939 14.1133 15.9985 14.103L15.0894 13.687C14.8574 14.1934 15.085 14.7676 15.5808 14.9443L15.9167 14.0024ZM22.5249 14.0347C20.2163 15.0293 17.5681 14.5913 15.9167 14.0024L15.5808 14.9443C17.3467 15.5737 20.2822 16.0898 22.9207 14.9531L22.5249 14.0347ZM22.4458 14.1294C22.4521 14.146 22.4299 14.0757 22.5249 14.0347L22.9207 14.9531C23.3616 14.7632 23.5601 14.2441 23.3801 13.7725L22.4458 14.1294ZM19.3401 5.99121L22.4458 14.1294L23.3801 13.7725L20.2744 5.63477L19.3401 5.99121Z" fill="#FFFFFF" fill-opacity="1.000000" fill-rule="nonzero" mask="url(#mask_103_9535)"/>
	<path id="Union" d="M12.3721 20.6875L12.3721 21.1875L11.8721 21.1875L11.8721 20.6875L12.3721 20.6875L12.3721 21.1875L11.8721 21.1875L11.8721 20.6875L12.3721 20.6875L12.3721 21.1875L11.8721 21.1875L11.8721 20.6875L12.3721 20.6875ZM11.3721 20.1875L12.8721 20.1875L12.8721 21.6875L11.3721 21.6875L11.3721 20.6875L11.3721 20.1875ZM11.8721 4.14941L12.3721 4.14941L12.3721 4.64941L11.8721 4.64941L11.8721 4.021L12.3721 4.021L12.4846 4.5083L11.8721 4.64941L11.7595 4.16211L12.2468 4.0498L12.3594 4.53711L11.8721 4.64941L11.8721 4.14941ZM11.4744 5.14941L11.1599 3.7876L12.8721 3.39258L12.8721 5.14941L11.8721 5.14941L11.4744 5.14941ZM8.99707 20.6875L8.99707 21.1875L7.99707 21.1875L7.99707 20.6875L8.99707 20.6875ZM7.99707 20.6875L8.49707 20.6875L8.99707 20.6875L8.99707 21.1875L8.49707 21.1875L7.99707 21.1875L7.99707 20.6875ZM16.8721 20.6875L16.8721 21.1875L15.8721 21.1875L15.8721 20.6875L16.8721 20.6875ZM15.8721 20.6875L16.3721 20.6875L16.8721 20.6875L16.8721 21.1875L16.3721 21.1875L15.8721 21.1875L15.8721 20.6875ZM12.9971 21.1875L12.4971 21.1875L12.4971 20.6875L12.9971 20.6875L12.9971 21.1875L12.4971 21.1875L12.4971 20.6875L12.9971 20.6875L12.9971 21.1875L12.4971 21.1875L12.4971 20.6875L12.9971 20.6875L12.9971 21.1875ZM13.4971 20.1875L13.4971 21.6875L11.9971 21.6875L11.9971 20.1875L12.9971 20.1875L13.4971 20.1875ZM12.4983 4.38135L12.5317 3.88232L13.0305 3.91553L12.9971 4.41455L12.4636 4.37891L12.4971 3.87988L12.9971 3.87988L12.9971 4.41455L12.4971 4.41455L12.4971 3.91455L12.9971 3.91455L12.9971 4.41455L12.4983 4.38135ZM13.4646 4.91455L11.9971 4.91455L11.9971 3.34521L13.563 3.4502L13.4958 4.44824L13.4646 4.91455ZM13.5999 4.58057L13.4563 5.05957L12.4985 4.77246L12.6421 4.29346L13.5999 4.58057ZM12.6421 4.29346L13.1211 4.43701L13.5999 4.58057L13.4563 5.05957L12.9773 4.91602L12.4985 4.77246L12.6421 4.29346ZM18.3005 5.47363L18.7551 5.68213L18.5469 6.13672L18.0923 5.92822L18.3315 5.40625L18.7861 5.61475L18.6423 6.09326L18.0923 5.92822L18.2361 5.44971L18.7148 5.59326L18.5713 6.07227L18.0923 5.92822L18.3005 5.47363ZM17.4883 6.20166L17.9009 4.82715L19.4797 5.30078L18.7935 6.79932L17.884 6.38281L17.4883 6.20166ZM14.4265 13.9331L13.9719 13.7251L14.3884 12.8159L14.843 13.0239L14.4265 13.9331ZM14.843 13.0239L14.6348 13.4785L14.4265 13.9331L13.9719 13.7251L14.1802 13.2705L14.3884 12.8159L14.843 13.0239ZM15.884 15.583L15.7161 16.0542L14.7742 15.7183L14.9419 15.2476L15.884 15.583ZM14.9419 15.2476L15.4131 15.415L15.884 15.583L15.7161 16.0542L15.2451 15.8862L14.7742 15.7183L14.9419 15.2476ZM23.5779 15.2144L23.7756 15.6733L22.8572 16.0693L22.6594 15.6099L23.5779 15.2144ZM22.6594 15.6099L23.1187 15.4121L23.5779 15.2144L23.7756 15.6733L23.3164 15.8711L22.8572 16.0693L22.6594 15.6099ZM23.6689 13.1274L24.1362 12.9492L24.4927 13.8833L24.0256 14.0615L23.6689 13.1274ZM24.0256 14.0615L23.8472 13.5942L23.6689 13.1274L24.1362 12.9492L24.3145 13.416L24.4927 13.8833L24.0256 14.0615ZM20.3059 5.70215L20.1975 5.21387L20.6855 5.10547L20.7939 5.59375L20.229 5.71924L20.1204 5.23096L20.5876 5.05273L20.7939 5.59375L20.3269 5.77197L20.1487 5.30469L20.6157 5.12646L20.7939 5.59375L20.3059 5.70215ZM21.3757 5.90674L20.0381 6.41748L19.447 4.86865L21.0652 4.50879L21.282 5.48535L21.3757 5.90674ZM22.7695 5.15479L22.6609 4.6665L23.6372 4.44971L23.7456 4.93799L22.7695 5.15479ZM23.7456 4.93799L23.2576 5.04639L22.7695 5.15479L22.6609 4.6665L23.1492 4.55811L23.6372 4.44971L23.7456 4.93799ZM23.793 4.86328L23.3049 4.97168L23.0881 3.99561L23.5762 3.88721L23.793 4.86328ZM23.5762 3.88721L23.6846 4.375L23.793 4.86328L23.3049 4.97168L23.1965 4.4834L23.0881 3.99561L23.5762 3.88721ZM22.5254 4.05664L22.417 3.56836L23.3931 3.35156L23.5015 3.83936L22.5254 4.05664ZM23.5015 3.83936L23.0134 3.94824L22.5254 4.05664L22.417 3.56836L22.905 3.45996L23.3931 3.35156L23.5015 3.83936ZM18.2983 4.99561L18.1899 4.50781L19.166 4.29102L19.2744 4.77881L18.2983 4.99561ZM19.2744 4.77881L18.7864 4.88721L18.2983 4.99561L18.1899 4.50781L18.678 4.39941L19.166 4.29102L19.2744 4.77881ZM18.0239 4.7334L18.1675 4.25439L19.1252 4.54199L18.9817 5.02051L18.0239 4.7334ZM18.9817 5.02051L18.5027 4.87695L18.0239 4.7334L18.1675 4.25439L18.6465 4.39795L19.1252 4.54199L18.9817 5.02051ZM13.9233 3.50293L13.7795 3.98193L12.8218 3.69482L12.9653 3.21582L13.9233 3.50293ZM12.9653 3.21582L13.4443 3.35938L13.9233 3.50293L13.7795 3.98193L13.3005 3.83838L12.8218 3.69482L12.9653 3.21582ZM12.9971 3.78857L12.4971 3.78857L12.4971 3.28857L12.9971 3.28857L12.9971 3.77783L12.4971 3.77783L12.5083 3.27783L12.9971 3.28857L12.9858 3.78857L12.4861 3.77734L12.4973 3.27783L12.9971 3.28857L12.9971 3.78857ZM13.5083 2.78857L13.4746 4.2998L11.9971 4.2666L11.9971 2.78857L12.9971 2.78857L13.5083 2.78857ZM12.3594 3.38232L12.4717 3.86963L11.9846 3.98193L11.8721 3.49512L12.2595 3.40527L12.3721 3.89258L11.8721 3.89258L11.8721 3.49512L12.3721 3.49512L12.3721 3.99512L11.8721 3.99512L11.8721 3.49512L12.3594 3.38232ZM11.2437 2.99512L12.8721 2.99512L12.8721 4.29053L11.6096 4.58154L11.3848 3.60742L11.2437 2.99512ZM5.46509 4.97363L5.35254 4.48633L6.3269 4.26123L6.43945 4.74854L5.46509 4.97363ZM6.43945 4.74854L5.95215 4.86084L5.46509 4.97363L5.35254 4.48633L5.83984 4.37402L6.3269 4.26123L6.43945 4.74854ZM2.61694 3.3374L2.84058 2.89014L3.73486 3.3374L3.51147 3.78467L2.61694 3.3374ZM3.51147 3.78467L3.06421 3.56104L2.61694 3.3374L2.84058 2.89014L3.28784 3.11377L3.73486 3.3374L3.51147 3.78467ZM3.0083 4.79102L2.78467 5.23828L1.89014 4.79102L2.11377 4.34375L3.0083 4.79102ZM2.11377 4.34375L2.56104 4.56738L3.0083 4.79102L2.78467 5.23828L2.3374 5.01465L1.89014 4.79102L2.11377 4.34375ZM4.9292 5.19287L5.38379 5.40088L5.17554 5.85547L4.72095 5.64746L4.92212 5.20801L5.37671 5.41602L5.15308 5.86328L4.72095 5.64746L4.94458 5.2002L5.39185 5.42383L5.16821 5.87109L4.72095 5.64746L4.9292 5.19287ZM4.04248 5.88623L4.72095 4.5293L6.03247 5.18506L5.42212 6.51807L4.51294 6.10205L4.04248 5.88623ZM1.34277 13.0239L1.79736 13.2324L1.3811 14.1416L0.926514 13.9331L1.34277 13.0239ZM0.926514 13.9331L1.13477 13.4785L1.34277 13.0239L1.79736 13.2324L1.58936 13.687L1.3811 14.1416L0.926514 13.9331ZM2.38379 15.583L2.21582 16.0542L1.27393 15.7183L1.44189 15.2476L2.38379 15.583ZM1.44189 15.2476L1.91284 15.415L2.38379 15.583L2.21582 16.0542L1.74487 15.8862L1.27393 15.7183L1.44189 15.2476ZM10.0776 15.2144L10.2756 15.6733L9.35718 16.0693L9.15942 15.6099L10.0776 15.2144ZM9.15942 15.6099L9.61841 15.4121L10.0776 15.2144L10.2756 15.6733L9.81641 15.8711L9.35718 16.0693L9.15942 15.6099ZM10.1689 13.1274L10.636 12.9492L10.9927 13.8833L10.5254 14.0615L10.1689 13.1274ZM10.5254 14.0615L10.3472 13.5942L10.1689 13.1274L10.636 12.9492L10.8142 13.416L10.9927 13.8833L10.5254 14.0615ZM6.84619 5.80908L6.73364 5.32227L7.22095 5.20947L7.33325 5.69678L6.77393 5.82617L6.66138 5.33887L7.12866 5.16064L7.33325 5.69678L6.86621 5.875L6.68799 5.4082L7.15503 5.22998L7.33325 5.69678L6.84619 5.80908ZM7.91846 6.00879L6.57739 6.52051L5.98975 4.98047L7.5957 4.60986L7.82056 5.58447L7.91846 6.00879ZM6.17139 5.45654L6.63843 5.27832L6.81665 5.74561L6.34961 5.92383L6.19434 5.51709L6.66138 5.33887L6.77393 5.82617L6.34961 5.92383L6.23706 5.43652L6.72437 5.32422L6.83667 5.81152L6.34961 5.92383L6.17139 5.45654ZM5.99146 6.5957L5.63745 5.06201L6.97339 4.75391L7.46216 6.03467L6.52783 6.39111L5.99146 6.5957ZM9.59106 14.418L9.12402 14.5962L8.76758 13.6621L9.23462 13.4839L9.59106 14.418ZM9.23462 13.4839L9.41284 13.9512L9.59106 14.418L9.12402 14.5962L8.9458 14.1294L8.76758 13.6621L9.23462 13.4839ZM9.68188 14.2959L9.87988 14.7549L8.96143 15.1509L8.76367 14.6914L9.68188 14.2959ZM8.76367 14.6914L9.2229 14.4937L9.68188 14.2959L9.87988 14.7549L9.42065 14.9531L8.96143 15.1509L8.76367 14.6914ZM1.77783 14.3057L1.9458 13.8345L2.8877 14.1704L2.71973 14.6411L1.77783 14.3057ZM2.71973 14.6411L2.24878 14.4731L1.77783 14.3057L1.9458 13.8345L2.41675 14.0024L2.8877 14.1704L2.71973 14.6411ZM1.83569 14.3496L1.3811 14.1416L1.79736 13.2324L2.25195 13.4404L1.83569 14.3496ZM2.25195 13.4404L2.04395 13.895L1.83569 14.3496L1.3811 14.1416L1.58936 13.687L1.79736 13.2324L2.25195 13.4404ZM5.16504 5.94434L5.21338 5.44678L5.71094 5.49512L5.66284 5.99268L5.30811 5.95801L5.35645 5.46045L5.81104 5.66846L5.66284 5.99268L5.20825 5.78418L5.41626 5.32959L5.87085 5.53809L5.66284 5.99268L5.16504 5.94434ZM6.09253 6.73926L4.54541 6.03076L5.05029 4.92822L6.25708 5.04541L6.1604 6.04102L6.09253 6.73926ZM6.69238 5.84473L6.80493 6.33203L5.83032 6.55664L5.71802 6.06982L6.69238 5.84473ZM5.71802 6.06982L6.20532 5.95703L6.69238 5.84473L6.80493 6.33203L6.31763 6.44434L5.83032 6.55664L5.71802 6.06982ZM19.6292 5.3457L20.0962 5.16748L20.2744 5.63477L19.8074 5.81299L19.6533 5.40918L20.1204 5.23096L20.229 5.71924L19.8074 5.81299L19.699 5.32471L20.187 5.21631L20.2954 5.70459L19.8074 5.81299L19.6292 5.3457ZM19.4448 6.48633L19.1023 4.94531L20.4336 4.64941L20.9199 5.92334L19.9856 6.28027L19.4448 6.48633ZM18.6934 6.06055L18.585 5.57227L19.073 5.46387L19.1814 5.95215L18.9387 6.00586L18.8303 5.51807L19.2849 5.72607L19.1814 5.95215L18.7268 5.74365L18.9351 5.28906L19.3896 5.49756L19.1814 5.95215L18.6934 6.06055ZM19.8877 6.8252L18.064 5.99023L18.4792 5.0835L19.4526 4.86719L19.6694 5.84375L19.8877 6.8252ZM15.7522 13.4404L16.2068 13.6484L15.7903 14.5576L15.3357 14.3496L15.7522 13.4404ZM15.3357 14.3496L15.5439 13.895L15.7522 13.4404L16.2068 13.6484L15.9985 14.103L15.7903 14.5576L15.3357 14.3496ZM16.2197 14.6411L16.0518 15.1123L15.1099 14.7764L15.2778 14.3057L16.2197 14.6411ZM15.2778 14.3057L15.7488 14.4731L16.2197 14.6411L16.0518 15.1123L15.5808 14.9443L15.1099 14.7764L15.2778 14.3057ZM23.1821 14.2959L23.3799 14.7549L22.4614 15.1509L22.2637 14.6914L23.1821 14.2959ZM22.2637 14.6914L22.7229 14.4937L23.1821 14.2959L23.3799 14.7549L22.9207 14.9531L22.4614 15.1509L22.2637 14.6914ZM22.7346 13.4839L23.2019 13.3057L23.5583 14.2397L23.0913 14.418L22.7346 13.4839ZM23.0913 14.418L22.9131 13.9512L22.7346 13.4839L23.2019 13.3057L23.3801 13.7725L23.5583 14.2397L23.0913 14.418ZM11.8721 20.6875L11.8721 4.64941L12.3721 4.64941L12.3721 5.14941L11.3721 5.14941L11.3721 4.64941L11.8721 4.64941L11.8721 20.6875L11.3721 20.6875L11.3721 20.1875L12.3721 20.1875L12.3721 20.6875L11.8721 20.6875ZM12.8721 21.1875L10.8721 21.1875L10.8721 4.14941L12.8721 4.14941L12.8721 20.6875L12.8721 21.1875ZM8.49707 20.6875L11.8721 20.6875L11.8721 21.1875L11.3721 21.1875L11.3721 20.1875L11.8721 20.1875L11.8721 20.6875L8.49707 20.6875L8.49707 20.1875L8.99707 20.1875L8.99707 21.1875L8.49707 21.1875L8.49707 20.6875ZM7.99707 21.6875L7.99707 19.6875L12.3721 19.6875L12.3721 21.6875L8.49707 21.6875L7.99707 21.6875ZM7.93457 21.25Q7.93457 20.6875 8.49707 20.6875L8.49707 21.1875L7.99707 21.1875L7.99707 20.1875L8.49707 20.1875L8.49707 20.6875Q7.93457 20.6875 7.93457 21.25L7.43457 21.25L7.43457 20.75L8.43457 20.75L8.43457 21.25L7.93457 21.25ZM8.93457 21.75L6.93457 21.75L6.93457 21.25Q6.93457 19.6875 8.49707 19.6875L8.99707 19.6875L8.99707 21.6875L8.49707 21.6875Q8.93457 21.6875 8.93457 21.25L8.93457 21.75ZM8.49707 21.8125Q7.93457 21.8125 7.93457 21.25L8.43457 21.25L8.43457 21.75L7.43457 21.75L7.43457 21.25L7.93457 21.25Q7.93457 21.8125 8.49707 21.8125L8.49707 22.3125L7.99707 22.3125L7.99707 21.3125L8.49707 21.3125L8.49707 21.8125ZM8.99707 20.8125L8.99707 22.8125L8.49707 22.8125Q6.93457 22.8125 6.93457 21.25L6.93457 20.75L8.93457 20.75L8.93457 21.25Q8.93457 20.8125 8.49707 20.8125L8.99707 20.8125ZM16.3721 21.8125L8.49707 21.8125L8.49707 21.3125L8.99707 21.3125L8.99707 22.3125L8.49707 22.3125L8.49707 21.8125L16.3721 21.8125L16.3721 22.3125L15.8721 22.3125L15.8721 21.3125L16.3721 21.3125L16.3721 21.8125ZM16.8721 20.8125L16.8721 22.8125L7.99707 22.8125L7.99707 20.8125L16.3721 20.8125L16.8721 20.8125ZM16.9346 21.25Q16.9346 21.4829 16.7698 21.6479Q16.605 21.8125 16.3721 21.8125L16.3721 21.3125L16.8721 21.3125L16.8721 22.3125L16.3721 22.3125L16.3721 21.8125Q16.9346 21.8125 16.9346 21.25L17.4346 21.25L17.4346 21.75L16.4346 21.75L16.4346 21.25L16.9346 21.25ZM15.9346 20.75L17.9346 20.75L17.9346 21.25Q17.9346 22.8125 16.3721 22.8125L15.8721 22.8125L15.8721 20.8125L16.3721 20.8125Q16.1909 20.8125 16.0627 20.9409Q15.9346 21.0688 15.9346 21.25L15.9346 20.75ZM16.3721 20.6875Q16.9346 20.6875 16.9346 21.25L16.4346 21.25L16.4346 20.75L17.4346 20.75L17.4346 21.25L16.9346 21.25Q16.9346 21.0171 16.7698 20.8525Q16.605 20.6875 16.3721 20.6875L16.3721 20.1875L16.8721 20.1875L16.8721 21.1875L16.3721 21.1875L16.3721 20.6875ZM15.8721 21.6875L15.8721 19.6875L16.3721 19.6875Q17.9346 19.6875 17.9346 21.25L17.9346 21.75L15.9346 21.75L15.9346 21.25Q15.9346 21.6875 16.3721 21.6875L15.8721 21.6875ZM12.9971 20.6875L16.3721 20.6875L16.3721 21.1875L15.8721 21.1875L15.8721 20.1875L16.3721 20.1875L16.3721 20.6875L12.9971 20.6875L12.9971 20.1875L13.4971 20.1875L13.4971 21.1875L12.9971 21.1875L12.9971 20.6875ZM12.4971 21.6875L12.4971 19.6875L16.8721 19.6875L16.8721 21.6875L12.9971 21.6875L12.4971 21.6875ZM12.9971 4.41455L12.9971 20.6875L12.4971 20.6875L12.4971 20.1875L13.4971 20.1875L13.4971 20.6875L12.9971 20.6875L12.9971 4.41455L13.4971 4.41455L13.4971 4.91455L12.4971 4.91455L12.4971 4.41455L12.9971 4.41455ZM11.9971 3.91455L13.9971 3.91455L13.9971 21.1875L11.9971 21.1875L11.9971 4.41455L11.9971 3.91455ZM13.1211 4.43701Q13.0603 4.41895 12.9971 4.41455L13.0305 3.91553L13.5293 3.94922L13.4624 4.94678L12.9636 4.91357L12.9971 4.41455Q13.0603 4.41895 13.1211 4.43701L12.9773 4.91602L12.4985 4.77246L12.7859 3.81445L13.2646 3.95801L13.1211 4.43701ZM13.8872 3.62305L13.3127 5.53857L12.8337 5.39502Q12.8809 5.40918 12.9302 5.41211L12.4312 5.37891L12.5652 3.3833L13.064 3.41699Q13.2397 3.42871 13.4084 3.479L13.8872 3.62305ZM18.0923 5.92822L13.1211 4.43701L13.2646 3.95801L13.7437 4.10205L13.4563 5.05957L12.9773 4.91602L13.1211 4.43701L18.0923 5.92822L17.9487 6.40723L17.4697 6.26367L17.7571 5.30566L18.2361 5.44971L18.0923 5.92822ZM18.8586 5.11426L18.2839 7.02979L12.3547 5.25098L12.9294 3.33545L18.3796 4.9707L18.8586 5.11426ZM18.0923 5.92822L14.6348 13.4785L14.1802 13.2705L14.3884 12.8159L15.2976 13.2324L15.0894 13.687L14.6348 13.4785L18.0923 5.92822L18.5469 6.13672L18.3389 6.59131L17.4294 6.1748L17.6377 5.72021L18.0923 5.92822ZM17.3914 5.05762L19.2097 5.89014L15.3357 14.3496L13.5173 13.5171L17.1831 5.51221L17.3914 5.05762ZM14.6348 13.4785Q14.3796 14.0356 14.5925 14.6108Q14.8108 15.2007 15.4131 15.415L15.2451 15.8862L14.7742 15.7183L15.1099 14.7764L15.5808 14.9443L15.4131 15.415Q14.8198 15.2036 14.5933 14.6128Q14.3755 14.0449 14.6348 13.4785L15.0894 13.687L14.8811 14.1416L13.9719 13.7251L14.1802 13.2705L14.6348 13.4785ZM13.9338 12.6074L15.7522 13.4404L15.5439 13.895Q15.4597 14.0791 15.5271 14.2549Q15.5889 14.4165 15.7488 14.4731L16.2197 14.6411L15.5481 16.5249L15.0771 16.3574Q14.0349 15.9858 13.6548 14.958Q13.2983 13.9951 13.7256 13.0625L13.9338 12.6074ZM15.4131 15.415Q19.6255 16.9175 23.1187 15.4121L23.3164 15.8711L22.8572 16.0693L22.4614 15.1509L22.9207 14.9531L23.1187 15.4121Q19.6255 16.9175 15.4131 15.415L15.5808 14.9443L16.0518 15.1123L15.7161 16.0542L15.2451 15.8862L15.4131 15.415ZM14.6062 16.1895L15.2778 14.3057L15.7488 14.4731Q19.5911 15.8433 22.7229 14.4937L23.1821 14.2959L23.9734 16.1328L23.5144 16.3306Q19.6602 17.9912 15.0771 16.3574L14.6062 16.1895ZM23.1187 15.4121Q24.3401 14.8857 23.8472 13.5942L24.3145 13.416L24.4927 13.8833L23.5583 14.2397L23.3801 13.7725L23.8472 13.5942Q24.3401 14.8857 23.1187 15.4121L22.9207 14.9531L23.3799 14.7549L23.7756 15.6733L23.3164 15.8711L23.1187 15.4121ZM23.0552 16.5283L22.2637 14.6914L22.7229 14.4937Q23.064 14.3467 22.9131 13.9512L22.7346 13.4839L24.6033 12.7705L24.7815 13.2378Q25.6162 15.4248 23.5144 16.3306L23.0552 16.5283ZM23.8472 13.5942L20.7939 5.59375L21.2612 5.41553L21.4395 5.88232L20.5051 6.23926L20.3269 5.77197L20.7939 5.59375L23.8472 13.5942L23.3801 13.7725L23.2019 13.3057L24.1362 12.9492L24.3145 13.416L23.8472 13.5942ZM24.9597 13.7051L23.0913 14.418L19.6814 5.48291L21.55 4.77002L24.7815 13.2378L24.9597 13.7051ZM23.2576 5.04639L20.7939 5.59375L20.6855 5.10547L21.1736 4.99707L21.3906 5.97314L20.9023 6.08154L20.7939 5.59375L23.2576 5.04639L23.366 5.53418L22.8779 5.64258L22.6609 4.6665L23.1492 4.55811L23.2576 5.04639ZM23.5288 3.96143L23.9626 5.91406L20.5227 6.67822L20.0889 4.72607L23.0405 4.06982L23.5288 3.96143ZM23.6846 4.375Q23.7351 4.60254 23.6101 4.79932Q23.4849 4.99561 23.2576 5.04639L23.1492 4.55811L23.6372 4.44971L23.854 5.42578L23.366 5.53418L23.2576 5.04639Q23.8066 4.92432 23.6846 4.375L24.1726 4.2666L24.2812 4.75488L23.3049 4.97168L23.1965 4.4834L23.6846 4.375ZM22.5999 4.104L24.5522 3.66992L24.6609 4.1582Q24.8013 4.79004 24.4536 5.33594Q24.1062 5.88184 23.4744 6.02246L22.9863 6.13086L22.5525 4.17871L23.0405 4.06982Q22.8638 4.10938 22.7664 4.26221Q22.6692 4.41504 22.7085 4.59229L22.5999 4.104ZM23.0134 3.94824Q23.241 3.89746 23.4375 4.02246Q23.634 4.14746 23.6846 4.375L23.1965 4.4834L23.0881 3.99561L24.0642 3.77832L24.1726 4.2666L23.6846 4.375Q23.634 4.14746 23.4375 4.02246Q23.241 3.89746 23.0134 3.94824L22.905 3.45996L23.3931 3.35156L23.6101 4.32764L23.1218 4.43604L23.0134 3.94824ZM22.7424 5.03271L22.3083 3.08008L22.7966 2.97168Q24.3218 2.63281 24.6609 4.1582L24.7693 4.64648L22.8169 5.08008L22.7085 4.5918Q22.7478 4.76904 22.9006 4.86621Q23.0535 4.96338 23.2305 4.92432L22.7424 5.03271ZM18.7864 4.88721L23.0134 3.94824L23.1218 4.43604L22.6338 4.54443L22.417 3.56836L22.905 3.45996L23.0134 3.94824L18.7864 4.88721L18.678 4.39941L19.166 4.29102L19.3831 5.26709L18.8948 5.37549L18.7864 4.88721ZM18.5151 5.97217L18.0813 4.01953L23.2847 2.86328L23.7185 4.81592L19.0034 5.86377L18.5151 5.97217ZM18.5027 4.87695Q18.6433 4.91895 18.7864 4.88721L18.8948 5.37549L18.4067 5.48389L18.1899 4.50781L18.678 4.39941L18.7864 4.88721Q18.6433 4.91895 18.5027 4.87695L18.6465 4.39795L19.1252 4.54199L18.8379 5.49951L18.3591 5.35596L18.5027 4.87695ZM17.7366 5.69141L18.3113 3.77539L18.79 3.91943Q18.6809 3.88623 18.5696 3.91113L19.0576 3.80273L19.4915 5.75488L19.0034 5.86377Q18.6057 5.95215 18.2153 5.83496L17.7366 5.69141ZM13.4443 3.35938L18.5027 4.87695L18.3591 5.35596L17.8801 5.2124L18.1675 4.25439L18.6465 4.39795L18.5027 4.87695L13.4443 3.35938L13.5879 2.88037L14.0669 3.02441L13.7795 3.98193L13.3005 3.83838L13.4443 3.35938ZM12.678 4.17383L13.2527 2.25781L19.269 4.06299L18.6943 5.97852L13.157 4.31738L12.678 4.17383ZM12.9971 3.28857Q13.2256 3.29395 13.4443 3.35938L13.3005 3.83838L12.8218 3.69482L13.1091 2.73682L13.5879 2.88037L13.4443 3.35938Q13.2256 3.29395 12.9971 3.28857L13.0083 2.78906L13.5081 2.7998L13.4858 3.7998L12.9858 3.78857L12.9971 3.28857ZM12.4749 4.27734L12.5195 2.27783L13.0193 2.28906Q13.3831 2.29688 13.7317 2.40186L14.2107 2.54541L13.636 4.46094L13.157 4.31738Q13.0679 4.29053 12.9749 4.28857L12.4749 4.27734ZM12.9971 1.5625L12.9971 3.28857L12.4971 3.28857L12.4971 2.78857L13.4971 2.78857L13.4971 3.28857L12.9971 3.28857L12.9971 1.5625L13.4971 1.5625L13.4971 2.0625L12.4971 2.0625L12.4971 1.5625L12.9971 1.5625ZM11.9971 1.0625L13.9971 1.0625L13.9971 3.78857L11.9971 3.78857L11.9971 1.5625L11.9971 1.0625ZM12.4346 1Q12.9971 1 12.9971 1.5625L12.4971 1.5625L12.4971 1.0625L13.4971 1.0625L13.4971 1.5625L12.9971 1.5625Q12.9971 1 12.4346 1L12.4346 0.5L12.9346 0.5L12.9346 1.5L12.4346 1.5L12.4346 1ZM11.9346 2L11.9346 0L12.4346 0Q13.0818 0 13.5396 0.45752Q13.9971 0.915527 13.9971 1.5625L13.9971 2.0625L11.9971 2.0625L11.9971 1.5625Q11.9971 2 12.4346 2L11.9346 2ZM11.8721 1.5625Q11.8721 1 12.4346 1L12.4346 1.5L11.9346 1.5L11.9346 0.5L12.4346 0.5L12.4346 1Q11.8721 1 11.8721 1.5625L11.3721 1.5625L11.3721 1.0625L12.3721 1.0625L12.3721 1.5625L11.8721 1.5625ZM12.8721 2.0625L10.8721 2.0625L10.8721 1.5625Q10.8721 0.915527 11.3298 0.45752Q11.7874 0 12.4346 0L12.9346 0L12.9346 2L12.4346 2Q12.6157 2 12.7439 1.87207Q12.8721 1.74365 12.8721 1.5625L12.8721 2.0625ZM11.8721 3.49512L11.8721 1.5625L12.3721 1.5625L12.3721 2.0625L11.3721 2.0625L11.3721 1.5625L11.8721 1.5625L11.8721 3.49512L11.3721 3.49512L11.3721 2.99512L12.3721 2.99512L12.3721 3.49512L11.8721 3.49512ZM12.8721 3.99512L10.8721 3.99512L10.8721 1.0625L12.8721 1.0625L12.8721 3.49512L12.8721 3.99512ZM5.95215 4.86084L11.8721 3.49512L11.9846 3.98193L11.4973 4.09473L11.2725 3.12012L11.7595 3.00781L11.8721 3.49512L5.95215 4.86084L5.83984 4.37402L6.3269 4.26123L6.55176 5.23584L6.0647 5.34814L5.95215 4.86084ZM5.68994 5.94775L5.24023 3.99902L12.1345 2.4082L12.5842 4.35693L6.177 5.83545L5.68994 5.94775ZM5.57422 4.81592Q5.75513 4.90674 5.95215 4.86084L6.0647 5.34814L5.57739 5.46045L5.35254 4.48633L5.83984 4.37402L5.95215 4.86084Q5.75513 4.90674 5.57422 4.81592L5.79785 4.36865L6.24512 4.59229L5.79785 5.48682L5.35059 5.26318L5.57422 4.81592ZM4.67969 5.48682L5.57422 3.69824L6.02148 3.92139Q5.88062 3.85107 5.72729 3.88672L6.2146 3.77441L6.66431 5.72314L6.177 5.83545Q5.62964 5.96191 5.12695 5.71045L4.67969 5.48682ZM3.06421 3.56104L5.57422 4.81592L5.35059 5.26318L4.90332 5.03955L5.35059 4.14502L5.79785 4.36865L5.57422 4.81592L3.06421 3.56104L3.28784 3.11377L3.73486 3.3374L3.28784 4.23193L2.84058 4.0083L3.06421 3.56104ZM2.16968 4.23193L3.06421 2.44287L6.46851 4.14502L5.57422 5.93408L2.61694 4.45557L2.16968 4.23193ZM2.30957 3.8125Q2.41357 3.604 2.63477 3.53027Q2.85571 3.45703 3.06421 3.56104L2.84058 4.0083L2.39331 3.78467L2.84058 2.89014L3.28784 3.11377L3.06421 3.56104Q2.56104 3.30957 2.30957 3.8125L1.8623 3.58887L2.08594 3.1416L2.98022 3.58887L2.75659 4.03613L2.30957 3.8125ZM2.98022 4.70703L1.19141 3.8125L1.41504 3.36523Q2.11377 1.96777 3.51147 2.6665L3.9585 2.89014L3.06421 4.6792L2.61694 4.45557Q2.77905 4.53662 2.95093 4.479Q3.1228 4.42188 3.20386 4.25977L2.98022 4.70703ZM2.56104 4.56738Q2.35254 4.46289 2.27905 4.24219Q2.20532 4.021 2.30957 3.8125L2.75659 4.03613L2.5332 4.4834L1.63867 4.03613L1.8623 3.58887L2.30957 3.8125Q2.05786 4.31592 2.56104 4.56738L2.3374 5.01465L1.89014 4.79102L2.3374 3.89648L2.78467 4.12012L2.56104 4.56738ZM3.45557 3.89648L2.56104 5.68506L2.11377 5.46191Q0.716309 4.7627 1.41504 3.36523L1.63867 2.91797L3.42749 3.8125L3.20386 4.25977Q3.28491 4.09766 3.22754 3.92578Q3.17041 3.75391 3.0083 3.67285L3.45557 3.89648ZM4.72095 5.64746L2.56104 4.56738L2.78467 4.12012L3.23193 4.34375L2.78467 5.23828L2.3374 5.01465L2.56104 4.56738L4.72095 5.64746L4.49731 6.09424L4.05029 5.87109L4.49731 4.97656L4.94458 5.2002L4.72095 5.64746ZM5.61548 4.97656L4.72095 6.76514L1.6665 5.23828L2.56104 3.44922L5.16821 4.75293L5.61548 4.97656ZM4.72095 5.64746L1.13477 13.4785L0.680176 13.2705L0.888184 12.8159L1.79736 13.2324L1.58936 13.687L1.13477 13.4785L4.72095 5.64746L5.17554 5.85547L4.96753 6.31006L4.05835 5.89355L4.26636 5.43896L4.72095 5.64746ZM4.02002 4.77637L5.83838 5.60889L1.83569 14.3496L0.017334 13.5171L3.81177 5.23096L4.02002 4.77637ZM1.13477 13.4785Q0.879639 14.0356 1.09253 14.6108Q1.31055 15.2007 1.91284 15.415L1.74487 15.8862L1.27393 15.7183L1.60986 14.7764L2.08081 14.9443L1.91284 15.415Q1.31958 15.2036 1.09326 14.6128Q0.875488 14.0449 1.13477 13.4785L1.58936 13.687L1.3811 14.1416L0.471924 13.7251L0.680176 13.2705L1.13477 13.4785ZM0.433594 12.6074L2.25195 13.4404L2.04395 13.895Q1.95947 14.0791 2.0271 14.2549Q2.08887 14.4165 2.24878 14.4731L2.71973 14.6411L2.0481 16.5249L1.57715 16.3574Q0.534912 15.9858 0.154541 14.958Q-0.20166 13.9951 0.225586 13.0625L0.433594 12.6074ZM1.91284 15.415Q6.12549 16.9175 9.61841 15.4121L9.81641 15.8711L9.35718 16.0693L8.96143 15.1509L9.42065 14.9531L9.61841 15.4121Q6.12549 16.9175 1.91284 15.415L2.08081 14.9443L2.55176 15.1123L2.21582 16.0542L1.74487 15.8862L1.91284 15.415ZM1.1062 16.1895L1.77783 14.3057L2.24878 14.4731Q6.09082 15.8433 9.2229 14.4937L9.68188 14.2959L10.4734 16.1328L10.0142 16.3306Q6.15991 17.9912 1.57715 16.3574L1.1062 16.1895ZM9.61841 15.4121Q10.8401 14.8857 10.3472 13.5942L10.8142 13.416L10.9927 13.8833L10.0583 14.2397L9.88013 13.7725L10.3472 13.5942Q10.8401 14.8857 9.61841 15.4121L9.42065 14.9531L9.87988 14.7549L10.2756 15.6733L9.81641 15.8711L9.61841 15.4121ZM9.55493 16.5283L8.76367 14.6914L9.2229 14.4937Q9.56396 14.3467 9.41284 13.9512L9.23462 13.4839L11.1033 12.7705L11.2815 13.2378Q12.116 15.4248 10.0142 16.3306L9.55493 16.5283ZM10.3472 13.5942L7.33325 5.69678L7.80054 5.51855L7.97876 5.98584L7.04443 6.34229L6.86621 5.875L7.33325 5.69678L10.3472 13.5942L9.88013 13.7725L9.70166 13.3057L10.636 12.9492L10.8142 13.416L10.3472 13.5942ZM11.4597 13.7051L9.59106 14.418L6.2207 5.58643L8.08936 4.87305L11.2815 13.2378L11.4597 13.7051ZM11.8721 4.64941L7.33325 5.69678L7.22095 5.20947L7.70801 5.09717L7.93286 6.07178L7.4458 6.18408L7.33325 5.69678L11.8721 4.64941L11.9846 5.13672L11.4973 5.24902L11.2725 4.2749L11.7595 4.16211L11.8721 4.64941ZM12.1345 3.5625L12.5842 5.51123L7.07104 6.78369L6.62134 4.83496L11.6472 3.67529L12.1345 3.5625ZM6.34961 5.92383L9.41284 13.9512L8.9458 14.1294L8.76758 13.6621L9.70166 13.3057L9.88013 13.7725L9.41284 13.9512L6.34961 5.92383L6.81665 5.74561L6.99512 6.21289L6.06079 6.56934L5.88232 6.10205L6.34961 5.92383ZM5.23706 5.81348L7.10571 5.1001L10.5254 14.0615L8.65698 14.7744L5.41528 6.28027L5.23706 5.81348ZM9.41284 13.9512Q9.40552 13.9316 9.39624 13.9126Q9.18066 13.4692 8.73413 13.6792Q8.46313 13.8066 8.448 14.1035Q8.46729 13.7305 8.82715 13.5752L9.28638 13.3774L9.87988 14.7549L9.42065 14.9531L9.2229 14.4937Q9.56396 14.3467 9.41284 13.9512L9.88013 13.7725L10.0583 14.2397L9.12402 14.5962L8.9458 14.1294L9.41284 13.9512ZM8.30029 13.8403L10.1689 13.1274L10.3472 13.5942Q10.8401 14.8857 9.61841 15.4121L9.15942 15.6099L8.56567 14.2324L9.0249 14.0347L9.2229 14.4937Q9.43384 14.4028 9.44678 14.1548Q9.43115 14.4565 9.15991 14.584Q8.71313 14.7944 8.49683 14.3496Q8.48706 14.3296 8.47852 14.3076L8.30029 13.8403ZM9.2229 14.4937Q6.09082 15.8433 2.24878 14.4731L2.41675 14.0024L2.8877 14.1704L2.55176 15.1123L2.08081 14.9443L2.24878 14.4731Q6.09082 15.8433 9.2229 14.4937L9.42065 14.9531L8.96143 15.1509L8.56567 14.2324L9.0249 14.0347L9.2229 14.4937ZM9.28638 13.3774L10.0776 15.2144L9.61841 15.4121Q6.12549 16.9175 1.91284 15.415L1.44189 15.2476L2.11353 13.3633L2.58447 13.5312Q6.0564 14.769 8.82715 13.5752L9.28638 13.3774ZM2.58447 13.5312Q2.85376 13.6274 2.95605 13.8853Q3.01025 14.0215 2.99365 14.1631Q2.99512 14.1523 2.99585 14.1406Q2.99878 14.0967 2.99414 14.0527Q2.98242 13.9443 2.92651 13.8506Q2.71509 13.4951 2.32642 13.6362Q2.125 13.7095 2.03955 13.9048Q2.04175 13.8999 2.04395 13.895L2.49854 14.103L2.29028 14.5576L1.3811 14.1416L1.58936 13.687L2.04395 13.895Q1.95874 14.0811 2.02759 14.2563Q2.09058 14.417 2.24878 14.4731L2.08081 14.9443L1.60986 14.7764L2.11353 13.3633L2.58447 13.5312ZM2.24878 14.4731L2.41675 14.0024L2.8877 14.1704L2.38379 15.583L1.91284 15.415Q1.32593 15.2061 1.09668 14.6221Q0.872559 14.0508 1.13477 13.4785L1.34277 13.0239L3.16138 13.8569L2.95312 14.3115Q2.95435 14.3086 2.95557 14.3057Q2.86914 14.5029 2.66748 14.5762Q2.27905 14.7173 2.06738 14.3623Q2.01147 14.2681 1.99976 14.1597Q1.99512 14.1157 1.99829 14.0713Q1.99902 14.0596 2.00049 14.0479Q1.98779 14.1562 2.02686 14.2544Q2.09155 14.4175 2.24878 14.4731ZM2.04395 13.895L5.66284 5.99268L6.11743 6.20068L5.90918 6.65527L5 6.23877L5.20825 5.78418L5.66284 5.99268L2.04395 13.895L1.58936 13.687L1.79736 13.2324L2.70654 13.6484L2.49854 14.103L2.04395 13.895ZM2.74487 14.7661L0.926514 13.9331L4.96167 5.12158L6.78003 5.9541L2.95312 14.3115L2.74487 14.7661ZM6.20532 5.95703Q5.93677 6.01904 5.66284 5.99268L5.71094 5.49512L6.20874 5.54297L6.11206 6.53857L5.6145 6.49023L5.66284 5.99268Q5.93677 6.01904 6.20532 5.95703L6.31763 6.44434L5.83032 6.55664L5.60547 5.58252L6.09277 5.47021L6.20532 5.95703ZM6.46753 4.87061L6.91724 6.81934L6.43018 6.93164Q6.00269 7.03027 5.56616 6.98779L5.0686 6.93945L5.26172 4.94873L5.75928 4.99707Q5.87109 5.00781 5.98047 4.98291L6.46753 4.87061ZM6.34961 5.92383L6.20532 5.95703L6.09277 5.47021L6.58008 5.35742L6.80493 6.33203L6.31763 6.44434L6.20532 5.95703L6.34961 5.92383L6.46191 6.41113L5.97485 6.52344L5.75 5.54932L6.23706 5.43652L6.34961 5.92383ZM6.61182 4.83691L7.06152 6.78564L5.94287 7.04395L5.49316 5.09521L6.12476 4.94971L6.61182 4.83691ZM19.8074 5.81299L19.1814 5.95215L19.073 5.46387L19.561 5.35547L19.7781 6.33154L19.2898 6.43994L19.1814 5.95215L19.8074 5.81299L19.9158 6.30127L19.4277 6.40967L19.2107 5.43311L19.699 5.32471L19.8074 5.81299ZM20.0784 4.72852L20.5125 6.68066L18.9102 7.03662L18.4763 5.08447L19.5903 4.83691L20.0784 4.72852ZM15.5439 13.895L19.1814 5.95215L19.636 6.16016L19.4277 6.61475L18.5186 6.19824L18.7268 5.74365L19.1814 5.95215L15.5439 13.895L15.0894 13.687L15.2976 13.2324L16.2068 13.6484L15.9985 14.103L15.5439 13.895ZM16.2449 14.7661L14.4265 13.9331L18.4805 5.08105L20.2988 5.91357L16.4531 14.3115L16.2449 14.7661ZM16.0847 13.5312Q16.3538 13.6274 16.4563 13.8853Q16.5103 14.0215 16.4939 14.1631Q16.4951 14.1523 16.4958 14.1406Q16.499 14.0967 16.4941 14.0527Q16.4827 13.9443 16.4265 13.8501Q16.2151 13.4951 15.8267 13.6362Q15.625 13.7095 15.5396 13.9048Q15.5417 13.8999 15.5439 13.895L15.9985 14.103L15.7903 14.5576L14.8811 14.1416L15.0894 13.687L15.5439 13.895Q15.4587 14.0811 15.5276 14.2563Q15.5906 14.417 15.7488 14.4731L15.5808 14.9443L15.1099 14.7764L15.6138 13.3633L16.0847 13.5312ZM15.7488 14.4731L15.9167 14.0024L16.3877 14.1704L15.884 15.583L15.4131 15.415Q14.8262 15.2061 14.5967 14.6221Q14.3726 14.0508 14.6348 13.4785L14.843 13.0239L16.6614 13.8569L16.4531 14.3115Q16.4546 14.3086 16.4558 14.3057Q16.3694 14.5029 16.1677 14.5762Q15.7791 14.7173 15.5676 14.3623Q15.5117 14.2686 15.5 14.1597Q15.4951 14.1157 15.4983 14.0713Q15.499 14.0596 15.5005 14.0479Q15.4878 14.1562 15.5269 14.2544Q15.5916 14.4175 15.7488 14.4731ZM22.7229 14.4937Q19.5911 15.8433 15.7488 14.4731L15.9167 14.0024L16.3877 14.1704L16.0518 15.1123L15.5808 14.9443L15.7488 14.4731Q19.5911 15.8433 22.7229 14.4937L22.9207 14.9531L22.4614 15.1509L22.0659 14.2324L22.5249 14.0347L22.7229 14.4937ZM22.7864 13.3774L23.5779 15.2144L23.1187 15.4121Q19.6255 16.9175 15.4131 15.415L14.9419 15.2476L15.6138 13.3633L16.0847 13.5312Q19.5564 14.769 22.3271 13.5752L22.7864 13.3774ZM22.9131 13.9512Q22.9058 13.9321 22.8962 13.9126Q22.6809 13.4697 22.2346 13.6792Q21.9634 13.8066 21.948 14.1035Q21.9673 13.7305 22.3271 13.5752L22.7864 13.3774L23.3799 14.7549L22.9207 14.9531L22.7229 14.4937Q23.064 14.3467 22.9131 13.9512L23.3801 13.7725L23.5583 14.2397L22.624 14.5962L22.4458 14.1294L22.9131 13.9512ZM21.8005 13.8403L23.6689 13.1274L23.8472 13.5942Q24.3401 14.8857 23.1187 15.4121L22.6594 15.6099L22.0659 14.2324L22.5249 14.0347L22.7229 14.4937Q22.9341 14.4028 22.9468 14.1548Q22.9312 14.4565 22.6597 14.5845Q22.2129 14.7939 21.9968 14.3496Q21.9871 14.3296 21.9788 14.3076L21.8005 13.8403ZM19.8074 5.81299L22.9131 13.9512L22.4458 14.1294L22.2676 13.6621L23.2019 13.3057L23.3801 13.7725L22.9131 13.9512L19.8074 5.81299L20.2744 5.63477L20.4526 6.10156L19.5186 6.4585L19.3401 5.99121L19.8074 5.81299ZM18.6948 5.70215L20.5632 4.98926L24.0256 14.0615L22.157 14.7744L18.873 6.16943L18.6948 5.70215Z" fill="#FFFFFF" fill-opacity="1.000000" fill-rule="nonzero"/>
</svg>
