<svg width="13.000000" height="7.000000" viewBox="0 0 13 7" fill="none" xmlns="http://www.w3.org/2000/svg" xmlns:xlink="http://www.w3.org/1999/xlink">
	<desc>
			Created with Pixso.
	</desc>
	<defs/>
	<path id="Vector" d="M-0.44 6.35C-0.25 6.54 0.07 6.54 0.26 6.35L5.91 0.7L11.56 6.35C11.75 6.54 12.07 6.54 12.26 6.35C12.46 6.15 12.46 5.84 12.26 5.64L6.26 -0.36C6.07 -0.55 5.75 -0.55 5.56 -0.36L-0.44 5.64C-0.64 5.84 -0.64 6.15 -0.44 6.35Z" fill="#343A40" fill-opacity="1.000000" fill-rule="evenodd"/>
	<path id="Vector" d="M5.2 1.41L0.26 6.35C0.07 6.54 -0.25 6.54 -0.44 6.35C-0.64 6.15 -0.64 5.84 -0.44 5.64L5.56 -0.36C5.75 -0.55 6.07 -0.55 6.26 -0.36L12.26 5.64C12.46 5.84 12.46 6.15 12.26 6.35C12.07 6.54 11.75 6.54 11.56 6.35L6.62 1.41L5.91 0.7L5.2 1.41Z" fill="#CB11AB" fill-opacity="1.000000" fill-rule="evenodd"/>
</svg>
